<svg width="111" height="28" viewBox="0 0 111 28" fill="none" xmlns="http://www.w3.org/2000/svg">
    <path d="M16.3964 26.2734C15.5169 26.4996 14.3735 26.7257 12.9663 26.9519C11.5591 27.2032 10.0137 27.3288 8.33012 27.3288C6.74702 27.3288 5.41521 27.1027 4.33468 26.6504C3.27928 26.198 2.42491 25.5698 1.77156 24.7657C1.14335 23.9616 0.691036 23.0067 0.414621 21.901C0.138207 20.7703 0 19.539 0 18.2071V7.16313H4.56084V17.491C4.56084 19.6018 4.86238 21.1095 5.46546 22.0141C6.09368 22.9187 7.17421 23.3711 8.70705 23.3711C9.25988 23.3711 9.83784 23.3459 10.4409 23.2957C11.0691 23.2454 11.534 23.1826 11.8356 23.1072V7.16313H16.3964V26.2734Z" fill="#323232"/>
    <path d="M26.2722 13.6086L30.4561 7.16313H35.2431L28.7599 16.4733C30.1169 18.2323 31.411 20.0164 32.6423 21.8256C33.8987 23.6098 34.929 25.2934 35.7331 26.8765H30.7954C30.5692 26.3991 30.2677 25.8588 29.8907 25.2557C29.5389 24.6275 29.1494 23.9867 28.7223 23.3334C28.3202 22.6549 27.893 21.989 27.4407 21.3356C26.9884 20.6823 26.5486 20.0667 26.1214 19.4887C25.2419 20.6195 24.375 21.8759 23.5206 23.258C22.6914 24.6149 22.0004 25.8211 21.4475 26.8765H16.7736C17.1505 26.1227 17.6029 25.3185 18.1306 24.4642C18.6583 23.6098 19.2237 22.7428 19.8267 21.8633C20.4298 20.9587 21.0455 20.0666 21.6737 19.1871C22.327 18.2825 22.9678 17.4281 23.596 16.624L17.0752 7.16313H22.0883L26.2722 13.6086Z" fill="#323232"/>
    <path d="M51.9522 26.8765C51.2989 25.8714 50.545 24.8159 49.6907 23.7103C48.8363 22.6046 47.9317 21.5367 46.9768 20.5064C46.047 19.4761 45.0796 18.4961 44.0744 17.5664C43.0693 16.6366 42.0767 15.8325 41.0967 15.154V26.8765H36.3474V13.8159V0.755345H41.0967V11.5355C41.9259 10.7063 42.7929 9.82676 43.6975 8.897C44.6021 7.94211 45.4942 6.98723 46.3737 6.03234C47.2783 5.05233 48.1327 4.11001 48.9368 3.20538C49.7409 2.30075 50.4697 1.48407 51.123 0.755345H56.8146C55.9854 1.71023 55.1059 2.70281 54.1761 3.73308C53.2464 4.76335 52.2915 5.80619 51.3115 6.86159C50.3314 7.89186 49.3389 8.92213 48.3337 9.9524C47.3537 10.9827 46.3863 11.9627 45.4314 12.8924C46.4868 13.6966 47.5547 14.6389 48.6353 15.7194C49.7409 16.7748 50.8215 17.9182 51.8769 19.1495C52.9323 20.3556 53.9374 21.6246 54.8923 22.9564C55.8723 24.2631 56.7644 25.5698 57.5685 26.8765H51.9522Z" fill="#323232"/>
    <path d="M68.8902 11.2716C68.5132 11.146 67.9855 11.0204 67.3071 10.8947C66.6537 10.7439 65.8873 10.6686 65.0078 10.6686C64.5052 10.6686 63.965 10.7188 63.387 10.8193C62.8342 10.9198 62.4447 11.0078 62.2185 11.0832V26.8765H57.6577V17.491V8.10545C58.5372 7.77878 59.6303 7.47724 60.937 7.20082C62.2688 6.89928 63.7388 6.74851 65.347 6.74851C65.6486 6.74851 66.0004 6.77364 66.4024 6.82389C66.8045 6.84902 67.2066 6.89928 67.6086 6.97466C68.0107 7.06455 68.2324 7.11352 68.2324 7.11352C68.5588 7.19514 68.8902 7.28824 68.8902 7.28824V11.2716Z" fill="#323232"/>
    <path d="M76.7801 23.6726C78.1873 23.6726 79.2552 23.5972 79.9839 23.4464V18.3956C79.7327 18.3202 79.3683 18.2448 78.8908 18.1694C78.4134 18.0941 77.8857 18.0564 77.3077 18.0564C76.8052 18.0564 76.29 18.0941 75.7623 18.1694C75.2598 18.2448 74.7949 18.383 74.3677 18.5841C73.9656 18.7851 73.639 19.0741 73.3877 19.451C73.1364 19.8028 73.0108 20.2551 73.0108 20.8079C73.0108 21.8885 73.35 22.6423 74.0285 23.0695C74.7069 23.4716 75.6241 23.6726 76.7801 23.6726ZM76.4031 6.67312C77.9108 6.67312 79.1798 6.86159 80.2101 7.23851C81.2404 7.61544 82.057 8.14314 82.6601 8.82161C83.2883 9.50008 83.7281 10.3293 83.9794 11.3093C84.2558 12.2642 84.394 13.3196 84.394 14.4755V26.4242C83.6904 26.575 82.6224 26.7509 81.1901 26.9519C79.7829 27.1781 78.1873 27.2911 76.4031 27.2911C75.2221 27.2911 74.1416 27.1781 73.1615 26.9519C72.1815 26.7257 71.3397 26.3614 70.6361 25.8588C69.9576 25.3562 69.4174 24.7029 69.0153 23.8988C68.6384 23.0946 68.4499 22.1021 68.4499 20.921C68.4499 19.7902 68.6635 18.8353 69.0907 18.0564C69.543 17.2774 70.1461 16.6492 70.9 16.1717C71.6538 15.6692 72.5207 15.3173 73.5008 15.1163C74.5059 14.8902 75.5488 14.7771 76.6293 14.7771C77.1319 14.7771 77.6595 14.8148 78.2124 14.8902C78.7652 14.9404 79.3557 15.0409 79.9839 15.1917V14.4378C79.9839 13.9101 79.9211 13.4076 79.7955 12.9301C79.6698 12.4527 79.4437 12.0381 79.117 11.6863C78.8155 11.3093 78.4008 11.0204 77.8731 10.8193C77.3706 10.6183 76.7298 10.5178 75.9508 10.5178C74.8954 10.5178 73.928 10.5932 73.0485 10.7439C72.169 10.8947 71.4528 11.0706 70.9 11.2716L70.7794 7.28824C71.3574 7.08722 71.7543 7.17569 72.86 6.97466C73.9656 6.77364 75.1467 6.67312 76.4031 6.67312Z" fill="#323232"/>
    <path d="M94.4375 0C95.4929 0 96.4227 0.100515 97.2268 0.301543C98.0309 0.477443 98.2024 0.679977 98.2024 0.679977L98.2228 4.52707C97.7956 4.32604 97.2394 4.19647 96.6614 4.07083C96.1086 3.94518 95.5055 3.88236 94.8521 3.88236C94.1234 3.88236 93.5078 3.99544 93.0052 4.2216C92.5026 4.42263 92.1006 4.71161 91.799 5.08854C91.4975 5.46546 91.2839 5.93034 91.1582 6.48317C91.0326 7.01087 90.9698 7.58883 90.9698 8.21704V9.53629H98.1314V13.3433H90.9698V26.8764H86.4089V8.14166C86.4089 5.60367 87.0749 3.61851 88.4067 2.18618C89.7385 0.728728 91.7488 0 94.4375 0Z" fill="#323232"/>
    <path d="M99.4283 0.853852H103.989V10.3901H111V14.1971H103.989V18.961C103.989 20.5441 104.24 21.6749 104.743 22.3533C105.246 23.0318 106.1 23.3711 107.306 23.3711C108.135 23.3711 108.864 23.2831 109.492 23.1072C110.146 22.9313 110.623 22.8836 111 22.7328V26.4644C110.472 26.6906 110.573 26.6881 109.718 26.9142C108.864 27.1655 107.859 27.2911 106.703 27.2911C105.296 27.2911 104.115 27.1027 103.16 26.7257C102.23 26.3488 101.489 25.8085 100.936 25.1049C100.383 24.3762 99.9937 23.5093 99.7675 22.5041C99.5414 21.4739 99.4283 20.3054 99.4283 18.9987V0.853852Z" fill="#323232"/>
</svg>
    